<svg width="27" height="27" viewBox="0 0 27 27" fill="none" xmlns="http://www.w3.org/2000/svg">
<g clip-path="url(#clip0_66_766)">
<path d="M26.8144 17.1923L20.0644 8.75475C19.9855 8.65593 19.8853 8.57611 19.7714 8.5212C19.6575 8.46629 19.5327 8.43768 19.4062 8.4375H7.59375C7.46723 8.43731 7.3423 8.46576 7.22833 8.5207C7.11435 8.57564 7.01429 8.65565 6.93563 8.75475L0.185625 17.1923C0.0658011 17.3416 0.000341118 17.5273 0 17.7188L0 25.3125C0 25.7601 0.17779 26.1893 0.494257 26.5057C0.810725 26.8222 1.23995 27 1.6875 27H25.3125C25.7601 27 26.1893 26.8222 26.5057 26.5057C26.8222 26.1893 27 25.7601 27 25.3125V17.7188C27.0001 17.5272 26.9346 17.3414 26.8144 17.1923ZM25.3125 18.5625H19.4062L16.0312 21.9375H10.9688L7.59375 18.5625H1.6875V18.0141L7.99875 10.125H18.9996L25.3108 18.0141V18.5625H25.3125Z" fill="black"/>
<path d="M19.4062 13.5H7.59375C7.36997 13.5 7.15536 13.4111 6.99713 13.2529C6.83889 13.0946 6.75 12.88 6.75 12.6562C6.75 12.4325 6.83889 12.2179 6.99713 12.0596C7.15536 11.9014 7.36997 11.8125 7.59375 11.8125H19.4062C19.63 11.8125 19.8446 11.9014 20.0029 12.0596C20.1611 12.2179 20.25 12.4325 20.25 12.6562C20.25 12.88 20.1611 13.0946 20.0029 13.2529C19.8446 13.4111 19.63 13.5 19.4062 13.5ZM21.0938 16.875H5.90625C5.68247 16.875 5.46786 16.7861 5.30963 16.6279C5.15139 16.4696 5.0625 16.255 5.0625 16.0312C5.0625 15.8075 5.15139 15.5929 5.30963 15.4346C5.46786 15.2764 5.68247 15.1875 5.90625 15.1875H21.0938C21.3175 15.1875 21.5321 15.2764 21.6904 15.4346C21.8486 15.5929 21.9375 15.8075 21.9375 16.0312C21.9375 16.255 21.8486 16.4696 21.6904 16.6279C21.5321 16.7861 21.3175 16.875 21.0938 16.875Z" fill="black"/>
</g>
<defs>
<clipPath id="clip0_66_766">
<rect width="27" height="27" fill="white"/>
</clipPath>
</defs>
</svg>
