<svg width="29" height="29" viewBox="0 0 29 29" fill="none" xmlns="http://www.w3.org/2000/svg">
<path d="M7.25 7.40406V19.0312C7.24982 20.1817 7.68723 21.2891 8.47351 22.1289C9.25979 22.9687 10.3361 23.478 11.484 23.5534L11.7813 23.5625H19.7816C19.5942 24.0925 19.2472 24.5514 18.7882 24.876C18.3292 25.2006 17.7809 25.3749 17.2188 25.375H10.875C9.43289 25.375 8.04984 24.8021 7.03011 23.7824C6.01038 22.7627 5.4375 21.3796 5.4375 19.9375V9.96875C5.43721 9.40628 5.61137 8.85757 5.93599 8.39824C6.26061 7.9389 6.7197 7.59155 7.25 7.40406ZM20.8438 3.625C21.5648 3.625 22.2563 3.91144 22.7662 4.4213C23.2761 4.93117 23.5625 5.62269 23.5625 6.34375V19.0312C23.5625 19.7523 23.2761 20.4438 22.7662 20.9537C22.2563 21.4636 21.5648 21.75 20.8438 21.75H11.7813C11.0602 21.75 10.3687 21.4636 9.8588 20.9537C9.34894 20.4438 9.0625 19.7523 9.0625 19.0312V6.34375C9.0625 5.62269 9.34894 4.93117 9.8588 4.4213C10.3687 3.91144 11.0602 3.625 11.7813 3.625H20.8438ZM20.8438 5.4375H11.7813C11.5409 5.4375 11.3104 5.53298 11.1404 5.70293C10.9705 5.87289 10.875 6.1034 10.875 6.34375V19.0312C10.875 19.2716 10.9705 19.5021 11.1404 19.6721C11.3104 19.842 11.5409 19.9375 11.7813 19.9375H20.8438C21.0841 19.9375 21.3146 19.842 21.4846 19.6721C21.6545 19.5021 21.75 19.2716 21.75 19.0312V6.34375C21.75 6.1034 21.6545 5.87289 21.4846 5.70293C21.3146 5.53298 21.0841 5.4375 20.8438 5.4375Z" fill="black"/>
</svg>
